<svg xmlns="http://www.w3.org/2000/svg" width="99.564" height="87.026" viewBox="0 0 99.564 87.026">
  <g id="Group_153" data-name="Group 153" transform="translate(-88.792 -678.923)">
    <path id="Path_60" data-name="Path 60" d="M1630.71-606.992c1.43-5.308,6.17-10.131,9.43-14.608,5.3-7.3,10.84-14.42,16.55-21.408,5.51-6.74,11.55-12.993,17.68-19.169,5.59-5.639,11.99-10.232,17.7-15.711,2.33-2.236-1.21-5.767-3.53-3.537-6.15,5.9-12.96,10.922-18.98,16.995a278.044,278.044,0,0,0-18.75,20.77c-5.56,6.858-10.89,13.9-16.08,21.035-2.58,3.536-5.09,7.114-7.58,10.707-.5.708-1.22,2.332.13.79a6.594,6.594,0,0,0-1.39,2.807c-.84,3.118,3.99,4.439,4.82,1.329" transform="translate(-1537 1361.059)" fill="#fff"/>
    <path id="Path_61" data-name="Path 61" d="M1645.13-602.992c5.07-14.331,15.97-27.041,25.91-38.3,9.85-11.159,21.73-20.3,31.45-31.6,2.09-2.432-1.43-5.985-3.54-3.537-10.47,12.182-23.3,22.043-33.76,34.252-9.67,11.3-19.87,23.684-24.88,37.852-1.08,3.048,3.76,4.347,4.82,1.329" transform="translate(-1537 1361.059)" fill="#fff"/>
    <path id="Path_62" data-name="Path 62" d="M1656.88-597.4a150.112,150.112,0,0,1,26.39-36.264c10.4-10.715,19.73-22.637,31.22-32.23,2.48-2.069-1.08-5.586-3.54-3.536-11.51,9.612-20.69,21.6-31.21,32.231a150.171,150.171,0,0,0-27.18,37.276c-1.46,2.866,2.86,5.4,4.32,2.523" transform="translate(-1537 1361.059)" fill="#fff"/>
    <path id="Path_63" data-name="Path 63" d="M1673.88-596.4c5.54-11.564,14.18-21.014,22.43-30.683a206.189,206.189,0,0,1,28.18-27.811c2.53-2-1.04-5.516-3.54-3.536a203.143,203.143,0,0,0-28.18,27.811c-8.48,10.023-17.48,19.744-23.21,31.7-1.38,2.893,2.93,5.43,4.32,2.523" transform="translate(-1537 1361.059)" fill="#fff"/>
  </g>
</svg>
