<svg xmlns="http://www.w3.org/2000/svg" width="106.913" height="29.629" viewBox="0 0 106.913 29.629">
  <g id="Group_147" data-name="Group 147" transform="translate(-542.011 -719.777)">
    <path id="Path_2" data-name="Path 2" d="M549.731-614.049c3.477-2.18,7.141-1.839,11.072-1.689,3.651.139,7.393-.457,11.041-.675,7.526-.449,15.061-1.017,22.586-1.393,16.377-.818,32.735,2.069,49.039,3.1,3.221.2,3.2-4.8,0-5-17.008-1.074-33.916-3.853-51-3-8.117.406-16.261.995-24.375,1.53-6.824.45-14.842-.98-20.886,2.812-2.723,1.708-.217,6.036,2.523,4.317" transform="translate(0 1363.059)" fill="#fff"/>
    <path id="Path_3" data-name="Path 3" d="M548.237-622.439c5.691-4.826,16.861-4.045,23.91-4.576,8.268-.622,16.535-.74,24.822-.661,8.206.079,16.079,1.259,24.2,2.157,8.261.913,16.537,1.789,24.636,3.723,3.135.748,4.465-4.073,1.328-4.822a198.169,198.169,0,0,0-24.248-3.712c-9.337-1.036-18.355-2.273-27.791-2.364-9.55-.092-19.05.322-28.566,1.13-7.3.62-15.963.617-21.826,5.589-2.463,2.089,1.092,5.608,3.535,3.536" transform="translate(0 1363.059)" fill="#fff"/>
    <path id="Path_4" data-name="Path 4" d="M545.133-633.364c18.461-4.219,37.324-4.955,56.193-4.9a148.317,148.317,0,0,1,27.123,2.743c5.684,1.061,11.5,2.524,17.305,2.7,3.227.1,3.217-4.9,0-5-6.174-.185-12.387-1.864-18.441-2.976a148.076,148.076,0,0,0-25.987-2.465c-19.289-.138-38.662.773-57.521,5.084-3.143.718-1.811,5.539,1.328,4.821" transform="translate(0 1363.059)" fill="#fff"/>
  </g>
</svg>
