<svg xmlns="http://www.w3.org/2000/svg" width="101.539" height="70.895" viewBox="0 0 101.539 70.895">
  <g id="Group_148" data-name="Group 148" transform="translate(-763.211 -694.766)">
    <path id="Path_21" data-name="Path 21" d="M798.457-607.282c4.857-8.908,15.322-13.337,23.826-18,10.841-5.948,22.3-11.743,34.679-13.517,3.182-.456,1.825-5.273-1.33-4.821-12.693,1.82-24.787,7.825-35.872,14.02-9.3,5.2-20.28,10-25.619,19.8-1.545,2.831,2.773,5.355,4.316,2.523" transform="translate(0 1363.059)" fill="#D3A6A3"/>
    <path id="Path_22" data-name="Path 22" d="M809.125-601.282c2.338-3.358,6.637-5.505,10.074-7.588,4.177-2.532,8.457-4.9,12.724-7.272,8.966-4.992,18.745-7.924,28.374-11.325,3.02-1.065,1.718-5.9-1.331-4.821-10.685,3.774-21.258,7.2-31.2,12.737-7.559,4.208-17.864,8.423-22.959,15.746-1.847,2.653,2.489,5.149,4.316,2.523" transform="translate(0 1363.059)" fill="#D3A6A3"/>
    <path id="Path_23" data-name="Path 23" d="M826.609-598.242c3.928-4.749,9.631-6.979,14.875-9.931,6.811-3.834,14.5-4.906,21.6-7.827,2.94-1.208,1.655-6.048-1.33-4.821-6.951,2.858-14.216,4.474-21.127,7.618-6.216,2.828-13.127,6.065-17.558,11.425-2.039,2.465,1.478,6.022,3.535,3.536" transform="translate(0 1363.059)" fill="#D3A6A3"/>
    <path id="Path_24" data-name="Path 24" d="M764.967-645.467c7.619,2.271,14.262,6.584,20.738,11.082,6.033,4.189,12.485,8.181,17.494,13.608,2.19,2.374,5.717-1.17,3.536-3.535-5.026-5.446-11.414-9.314-17.407-13.582-7.144-5.089-14.558-9.868-23.031-12.394-3.1-.924-4.412,3.9-1.33,4.821" transform="translate(0 1363.059)" fill="#D3A6A3"/>
    <path id="Path_25" data-name="Path 25" d="M776.3-657.377c8.92,1,16.387,7.506,23.059,12.972,6.757,5.538,13.9,10.488,19.841,16.963,2.184,2.381,5.709-1.165,3.536-3.536-6.622-7.218-14.719-12.8-22.284-18.955-7.134-5.8-14.773-11.4-24.152-12.444-3.2-.358-3.168,4.646,0,5" transform="translate(0 1363.059)" fill="#D3A6A3"/>
    <path id="Path_26" data-name="Path 26" d="M796.471-663.519c9.02,6.379,18.793,12.017,26.541,20,3.14,3.238,6.832,9.636,11.388,10.917,3.112.875,4.43-3.95,1.33-4.821-1.836-.517-4.232-4.205-5.478-5.568-2.17-2.371-4.3-4.709-6.655-6.9-7.446-6.905-16.345-12.109-24.6-17.948-2.64-1.867-5.132,2.471-2.523,4.317" transform="translate(0 1363.059)" fill="#D3A6A3"/>
  </g>
</svg>
