<svg xmlns="http://www.w3.org/2000/svg" width="125.747" height="37.551" viewBox="0 0 125.747 37.551">
  <g id="Group_149" data-name="Group 149" transform="translate(-972.872 -719.493)">
    <path id="Path_27" data-name="Path 27" d="M1013.91-606.771c8.74-9.021,22.12-13.4,33.81-17.217,15.4-5.017,31.67-7.029,47.75-4.807,3.16.436,4.52-4.382,1.33-4.821-16.5-2.28-32.69-.495-48.61,4.247-13.02,3.879-28.17,9.114-37.82,19.062-2.24,2.315,1.29,5.854,3.54,3.536" transform="translate(0 1363.059)" fill="#fff"/>
    <path id="Path_28" data-name="Path 28" d="M977.064-619.253c8.26-9.374,22.283-14.422,34.086-17.479,16.15-4.177,31.72-1.333,46.22,6.536,2.83,1.538,5.36-2.78,2.52-4.318-14.75-8.009-30.12-10.975-46.68-7.8-13.527,2.589-30.382,8.973-39.681,19.528-2.123,2.409,1.4,5.959,3.535,3.535" transform="translate(0 1363.059)" fill="#fff"/>
  </g>
</svg>
