<svg xmlns="http://www.w3.org/2000/svg" width="103.227" height="66.715" viewBox="0 0 103.227 66.715">
  <g id="Group_151" data-name="Group 151" transform="translate(-1201.502 -702.416)">
    <g id="Group_150" data-name="Group 150">
      <path id="Path_15" data-name="Path 15" d="M1201.65-605.642l.03.092c.48,1.407,2.28,2.485,3.68,1.494,2.66-1.9,3.82-6.89,5.02-9.746a100.049,100.049,0,0,1,9.36-17.115c6.62-9.932,20.99-30.482,34.84-22.422,13.97,8.129,19.2,24.922,27.23,37.753a101.87,101.87,0,0,0,9.13,11.671c3.02,3.526,6.41,7.935,10.81,9.783,2.97,1.249,4.25-3.592,1.33-4.822-4.5-1.89-8.59-8.412-11.57-12.043a94.374,94.374,0,0,1-10.94-17.5c-6.04-11.847-14.91-26.627-28.14-31.335-12.94-4.6-25.6,11.515-32.51,19.954-4.57,5.583-9.65,12.657-12.2,19.436-.94,2.517-2.02,4.989-3.09,7.455-.47,1.086-.95,2.165-1.45,3.24-.4.877-1.8,2.4-.35,1.373,1.23.5,2.45,1,3.67,1.494l-.03-.092c-1.04-3.032-5.87-1.73-4.82,1.329" transform="translate(0 1363.059)" fill="#fff"/>
    </g>
    <path id="Path_16" data-name="Path 16" d="M1220.42-634.8c-2.08-.52.08.506.66.667,2.15.59,5.06.136,7.29.142a39.041,39.041,0,0,0,15.38-2.809c4.39-1.83,8.37-4.727,12.59-6.919a28.587,28.587,0,0,0,6.54-4.3,2.487,2.487,0,0,0,.64-2.432l-.03-.094c-.97-3.062-5.8-1.754-4.82,1.329l.03.094c.21-.811.43-1.621.64-2.432-3.48,3.323-8.93,5.34-13.02,7.721-8.02,4.666-15.55,4.838-24.57,4.786l2.16,1.238a3.225,3.225,0,0,0-2.16-1.815c-3.13-.783-4.46,4.039-1.33,4.821" transform="translate(0 1363.059)" fill="#fff"/>
    <path id="Path_17" data-name="Path 17" d="M1211.75-622.043c3.34.1,6.65.567,10,.667,3.3.1,6.93-.769,10.19-1.2a114.142,114.142,0,0,0,15.44-3.017c8.54-2.351,18.6-6.163,23.86-13.689,1.85-2.649-2.48-5.144-4.32-2.524-4.87,6.96-15.35,9.991-23.15,12a120.348,120.348,0,0,1-15.28,2.667c-5.76.71-10.98.263-16.74.093-3.23-.1-3.22,4.905,0,5" transform="translate(0 1363.059)" fill="#fff"/>
    <path id="Path_18" data-name="Path 18" d="M1209.08-609.377c7.32.053,14.62.558,21.94.117a75.381,75.381,0,0,0,18.77-4.034c10.13-3.311,21.16-8.034,28.39-16.148,2.14-2.4-1.39-5.948-3.53-3.536-7.01,7.863-17.73,12.1-27.51,15.293-12.64,4.129-24.98,3.4-38.06,3.308-3.23-.023-3.22,4.977,0,5" transform="translate(0 1363.059)" fill="#fff"/>
    <path id="Path_19" data-name="Path 19" d="M1259.31-618.775c6.45,7.349,16.62,8.023,25.77,8.065,3.23.015,3.22-4.985,0-5-7.84-.036-16.68-.268-22.23-6.6-2.13-2.429-5.65,1.122-3.54,3.536" transform="translate(0 1363.059)" fill="#fff"/>
    <path id="Path_20" data-name="Path 20" d="M1246.26-612.615c1.42,3.255,5.14,5.066,7.95,6.956,4.38,2.939,8.99,4.081,14.21,4.86,6.47.967,16.29.9,21.92-2.919,2.65-1.8.16-6.134-2.52-4.317-4.49,3.049-11.83,2.741-17.04,2.491-3.59-.173-9.82-.925-12.64-3.386-2.36-2.06-6.25-3.206-7.57-6.208-1.29-2.947-5.6-.4-4.31,2.523" transform="translate(0 1363.059)" fill="#fff"/>
  </g>
</svg>
