<svg xmlns="http://www.w3.org/2000/svg" width="134.109" height="59.96" viewBox="0 0 134.109 59.96">
  <g id="Group_146" data-name="Group 146" transform="translate(-284.617 -703.613)">
    <path id="Path_9" data-name="Path 9" d="M295.448-604.277c11.487-17.436,38.053-21.775,57.059-17.127,13.12,3.208,23.32,12.728,35.523,18.024,8.326,3.614,21.416,6.1,29.523,1,2.721-1.712.214-6.04-2.523-4.317-5.336,3.358-12.1,2.015-17.885.7-6.775-1.546-12.571-4.395-18.481-8-10.347-6.318-20.081-11.95-32.27-13.573-19.527-2.6-43.916,3.555-55.263,20.779-1.78,2.7,2.552,5.2,4.317,2.523" transform="translate(0 1363.059)" fill="#D3A6A3"/>
    <path id="Path_10" data-name="Path 10" d="M289.627-617.8c.366-4.47,7.324-7.972,10.646-9.974a99,99,0,0,1,13.711-6.963c12.655-5.132,29.085-7.343,41.928-1.795,18.884,8.157,35.333,27.8,57.88,21.143,3.085-.912,1.77-5.738-1.33-4.822-25.074,7.41-41.875-21.34-65.22-23.964a74.82,74.82,0,0,0-41.416,7.728c-7.241,3.617-20.428,9.224-21.2,18.647-.263,3.216,4.739,3.19,5,0" transform="translate(0 1363.059)" fill="#D3A6A3"/>
    <path id="Path_11" data-name="Path 11" d="M289.627-632.648c.366-4.47,7.324-7.972,10.646-9.974a98.886,98.886,0,0,1,13.711-6.962c12.655-5.133,29.085-7.345,41.928-1.8,18.884,8.158,35.333,27.806,57.88,21.144,3.085-.912,1.77-5.738-1.33-4.822-25.074,7.41-41.875-21.34-65.22-23.964a74.819,74.819,0,0,0-41.416,7.727c-7.241,3.618-20.428,9.226-21.2,18.648-.263,3.215,4.739,3.19,5,0" transform="translate(0 1363.059)" fill="#D3A6A3"/>
  </g>
</svg>
